<svg xmlns="http://www.w3.org/2000/svg" xmlns:xlink="http://www.w3.org/1999/xlink" width="1920" zoomAndPan="magnify" viewBox="0 0 1440 809.999993" height="1080" preserveAspectRatio="xMidYMid meet" version="1.0"><defs><clipPath id="644b365d57"><path d="M 302.050781 73 L 1088 73 L 1088 764 L 302.050781 764 Z M 302.050781 73 " clip-rule="nonzero"/></clipPath><clipPath id="a82a3f5838"><path d="M 305 44.808594 L 1111.300781 44.808594 L 1111.300781 755 L 305 755 Z M 305 44.808594 " clip-rule="nonzero"/></clipPath></defs><g clip-path="url(#644b365d57)"><path fill="#000000" d="M 388.539062 73.675781 C 340.785156 73.675781 302.070312 112.402344 302.070312 160.171875 L 302.070312 516.75 C 302.070312 564.519531 340.785156 603.246094 388.539062 603.246094 L 773.460938 603.246094 L 953.621094 761.253906 C 958.539062 765.566406 966.167969 761.445312 965.265625 754.96875 L 944.089844 603.246094 L 1000.535156 603.246094 C 1048.289062 603.246094 1087.003906 564.519531 1087.003906 516.75 L 1087.003906 160.171875 C 1087.003906 112.402344 1048.289062 73.675781 1000.535156 73.675781 Z M 388.539062 73.675781 " fill-opacity="1" fill-rule="evenodd"/></g><path fill="#ffffff" d="M 411.128906 46.492188 C 363.371094 46.492188 324.65625 85.21875 324.65625 132.988281 L 324.65625 489.5625 C 324.65625 537.335938 363.371094 576.0625 411.128906 576.0625 L 796.050781 576.0625 L 976.207031 734.066406 C 981.125 738.382812 988.757812 734.261719 987.851562 727.785156 L 966.675781 576.0625 L 1023.125 576.0625 C 1070.878906 576.0625 1109.59375 537.335938 1109.59375 489.5625 L 1109.59375 132.988281 C 1109.59375 85.21875 1070.878906 46.492188 1023.125 46.492188 Z M 411.128906 46.492188 " fill-opacity="1" fill-rule="nonzero"/><g clip-path="url(#a82a3f5838)"><path stroke-linecap="butt" transform="matrix(0.337312, 0, 0, 0.337414, 199.86398, -101.291752)" fill="none" stroke-linejoin="miter" d="M 626.319648 437.990006 C 484.736012 437.990006 369.961318 552.764639 369.961318 694.340086 L 369.961318 1751.125723 C 369.961318 1892.712747 484.736012 2007.48738 626.319648 2007.48738 L 1767.465686 2007.48738 L 2301.560015 2475.766492 C 2316.13991 2488.559106 2338.768278 2476.345344 2336.081594 2457.150635 L 2273.303507 2007.48738 L 2440.653836 2007.48738 C 2582.225891 2007.48738 2697.000585 1892.712747 2697.000585 1751.125723 L 2697.000585 694.340086 C 2697.000585 552.764639 2582.225891 437.990006 2440.653836 437.990006 Z M 626.319648 437.990006 " stroke="#000000" stroke-width="10" stroke-opacity="1" stroke-miterlimit="4"/></g></svg>